<svg xmlns="http://www.w3.org/2000/svg" width="970" height="970"><g><path d="M461 1a484 484 0 1 0 45 0h-45m-7 48a464 464 0 0 0-200 65A446 446 0 0 0 79 323a438 438 0 0 0 568 568 446 446 0 0 0 244-244A438 438 0 0 0 454 49m325 292c-5 2-9 6-12 12-2 3-3 4-3 72l1 75c2 11 11 17 22 17 10 0 16-4 21-14 1-2 2-12 2-70l-1-74c-2-11-9-18-20-19l-10 1m-543 59c-37 6-64 28-76 62-11 29-7 67 8 93a92 92 0 0 0 81 45c28 0 48-8 67-25a96 96 0 0 0 29-75c0-17 0-19-2-28a96 96 0 0 0-68-70c-11-2-29-4-39-2m195 2c-27 4-45 19-51 41-6 19-2 38 9 50 10 11 18 15 53 25 37 10 44 15 42 28-2 10-12 15-28 16-19 1-35-5-48-16-11-10-16-12-25-8-4 2-12 10-13 14-6 14 12 33 40 42 23 8 52 9 74 2 26-7 40-23 43-49 3-19-4-37-17-48-11-8-21-12-51-20-27-7-35-11-38-19-4-12 4-21 21-22 14-1 26 3 41 13 11 7 14 8 20 7 8-2 18-14 18-22 0-7-9-18-21-25a105 105 0 0 0-69-9m135 2c-5 2-9 6-12 12l-2 5v56l1 56 2 9c5 18 14 33 26 42 17 12 42 18 68 16 42-4 68-26 75-66 1-11 2-110 0-116s-9-13-14-14c-9-2-18 0-24 6s-6 7-6 61c0 40 0 49-2 56-3 15-11 25-23 29-8 2-24 3-32 0-11-3-19-11-23-24-2-6-2-8-3-60v-54l-4-5c-5-8-17-12-26-9m-328 38c-16 3-28 13-36 27-4 10-6 19-6 31 0 28 14 49 38 56 7 2 22 2 29 0 24-6 39-28 39-56l-2-17a53 53 0 0 0-62-41M0 485c0 5 1 7 1 4v-8c0-2-1-1-1 4m776 59c-2 0-6 3-9 6-20 17-7 50 20 50a29 29 0 0 0 10-56c-5-2-15-2-21 0" fill="#000000" fill-rule="evenodd" fill-opacity="1" /></g></svg>